<svg width="64" height="64" viewBox="0 0 64 64" fill="none" xmlns="http://www.w3.org/2000/svg">
<path d="M58.0781 28.5859L22.0859 6.58983C21.4797 6.21911 20.7856 6.0166 20.0751 6.00316C19.3646 5.98971 18.6634 6.16581 18.0436 6.51332C17.4237 6.86084 16.9077 7.36723 16.5485 7.98038C16.1893 8.59354 16 9.29132 16 10.0019V53.998C16.0006 54.7084 16.1903 55.4058 16.5496 56.0186C16.9089 56.6314 17.4249 57.1376 18.0445 57.485C18.6642 57.8324 19.3651 58.0085 20.0754 57.9954C20.7856 57.9822 21.4796 57.7802 22.0859 57.4101L58.0781 35.414C58.6628 35.0565 59.1459 34.5548 59.481 33.957C59.8162 33.3592 59.9922 32.6853 59.9922 32C59.9922 31.3146 59.8162 30.6408 59.481 30.043C59.1459 29.4452 58.6628 28.9435 58.0781 28.5859V28.5859Z" fill="white"/>
</svg>
